<svg width="22" height="22" viewBox="0 0 22 22" fill="none" xmlns="http://www.w3.org/2000/svg">
<path d="M20.2763 11C21.2283 11 22.0138 11.7764 21.8652 12.7167C21.6324 14.1903 21.1012 15.6073 20.2975 16.8785C19.1854 18.6375 17.5971 20.0449 15.717 20.9373C13.837 21.8297 11.7424 22.1705 9.67642 21.9201C7.61046 21.6697 5.65791 20.8383 4.04552 19.5226C2.43313 18.2069 1.22705 16.4608 0.567336 14.4871C-0.0923771 12.5133 -0.178655 10.3929 0.31852 8.37208C0.815695 6.35125 1.87593 4.51292 3.37609 3.07056C4.46018 2.02824 5.74187 1.22361 7.13884 0.699924C8.03024 0.365765 8.94839 0.979596 9.13934 1.91222V1.91222C9.33029 2.84485 8.71554 3.7385 7.8503 4.13551C7.0843 4.48699 6.37879 4.9659 5.76542 5.55564C4.73541 6.54597 4.00745 7.80817 3.66609 9.19567C3.32473 10.5832 3.38397 12.039 3.83693 13.3942C4.28989 14.7494 5.11798 15.9483 6.22505 16.8516C7.33212 17.755 8.67274 18.3258 10.0912 18.4977C11.5097 18.6697 12.9479 18.4357 14.2387 17.8229C15.5295 17.2102 16.6201 16.2439 17.3837 15.0362C17.8384 14.317 18.1661 13.5297 18.3568 12.7088C18.5721 11.7815 19.3243 11 20.2763 11V11Z" fill="url(#paint0_linear_3541_31630)"/>
<defs>
<linearGradient id="paint0_linear_3541_31630" x1="10.6038" y1="-40.9063" x2="-74.4228" y2="26.5283" gradientUnits="userSpaceOnUse">
<stop stop-color="#F83600"/>
<stop offset="1" stop-color="#F9D423"/>
</linearGradient>
</defs>
</svg>
